<svg width="282" height="290" viewBox="122.5 111.5 282 290" fill="none" xmlns="http://www.w3.org/2000/svg">
<path d="M193.734 260.304C204.002 258.204 209.747 258.208 219.894 260.304C229.997 262.907 235.566 265.769 245.365 272.72C263.913 286.845 273.817 292.604 287.827 299.196C288.08 299.315 288.018 299.691 287.739 299.716C279.016 300.485 269.941 299.746 259.134 296.862C244.493 292.956 235.859 285.837 224.713 278.928C215.662 273.788 209.908 271.811 197.865 270.65C189.914 270.283 186.275 270.682 180.654 272.03C174.521 273.765 170.992 275.21 165.832 277.996C165.551 278.147 165.28 277.778 165.506 277.554C174.71 268.447 181.019 264.247 193.734 260.304Z" fill="url(#paint0_linear_17_939)"/>
<path d="M219.894 232.023C235.325 231.16 243.279 233.069 258.445 240.99C273.595 249.65 281.622 255.919 295.62 266.512C309.661 275.86 317.771 278.84 332.794 278.928C346.127 277.665 353.148 273.312 364.315 260.572C364.51 260.349 364.871 260.543 364.783 260.825C362.673 267.552 359.251 274.569 352.758 282.377C345.874 290.654 341.743 292.724 334.171 295.483C326.598 298.242 309.346 298.703 295.62 295.483C278.721 288.484 272.133 283.756 263.264 277.548C249.989 268.256 245.142 263.833 234.351 258.234C221.058 252.171 211.072 251.318 193.734 254.096C180.704 257.381 173.721 261.824 162.445 270.516C162.207 270.699 161.89 270.424 162.038 270.163C168.052 259.472 172.603 253.227 182.72 245.128C195.53 236.937 204.528 232.881 219.894 232.023Z" fill="url(#paint1_linear_17_939)"/>
<path d="M301.127 112C341.83 116.566 356.954 148.71 351.381 171.321C348.311 184.136 344.646 189.91 334.546 197.261C334.378 197.384 334.4 197.647 334.586 197.739C347.507 204.156 353.869 209.795 359.642 218.227C365.838 232.022 367.409 242.392 360.331 254.785C353.506 266.734 342.432 272.72 330.04 272.72C317.919 272.72 308.332 267.959 298.352 260.141C298.142 259.976 298.267 259.638 298.533 259.649C305.843 259.941 310.126 259.722 315.584 255.475C323.171 249.57 325.82 241.271 323.156 232.023C321.2 225.229 317.332 222.006 311.453 218.227C326.335 193.675 330.483 184.516 327.287 176.84C325.14 173.436 322.711 171.761 318.458 171.321H312.83C312.904 171.316 312.977 171.312 313.049 171.307C312.929 171.268 312.845 171.148 312.856 171.016C314.431 152.049 308.047 145.485 292.866 142.351C277.621 139.203 235.824 142.343 235.728 142.351V169.756C235.728 169.868 235.658 169.969 235.554 170.012C229.069 172.663 225.123 175.391 217.829 181.668C217.907 181.639 249.505 169.7 255.003 168.562C260.509 167.423 264.759 167.443 270.148 169.942C274.526 171.972 279.144 177.837 280.234 179.277C280.351 179.431 280.269 179.654 280.082 179.704C246.554 188.652 228.727 194.26 198.926 204.986C198.746 205.051 198.553 204.92 198.553 204.729V112.276C198.553 112.124 198.677 112 198.829 112H301.127Z" fill="url(#paint2_linear_17_939)"/>
<path d="M318.878 177.546C320.67 177.19 322.314 178.654 322.031 180.462C320.191 192.209 314.303 203.533 305.258 215.468C295.749 228.013 286.482 234.075 274.51 241.389C273.542 241.98 272.31 241.911 271.397 241.236C258.489 231.681 245.629 226.469 227.467 225.814C212.22 225.265 201.162 227.943 189.301 234.146C187.942 234.856 186.253 234.369 185.523 233.018L179.432 221.748C178.628 220.26 179.348 218.4 180.939 217.832C228.571 200.832 262.775 188.686 318.878 177.546Z" fill="url(#paint3_linear_17_939)"/>
<path d="M124 381.622C123.448 381.622 123 381.174 123 380.622V317C123 316.448 123.448 316 124 316H151.471C155.944 316 159.752 316.763 162.896 318.29C166.099 319.758 168.547 321.872 170.24 324.632C171.993 327.333 172.869 330.622 172.869 334.497C172.869 337.492 172.023 340.311 170.331 342.953C168.699 345.537 166.069 347.68 162.442 349.383V343.834C165.767 345.067 168.396 346.594 170.331 348.415C172.265 350.235 173.625 352.261 174.411 354.492C175.197 356.724 175.59 359.073 175.59 361.539C175.59 367.822 173.444 372.755 169.152 376.337C164.921 379.86 159.027 381.622 151.471 381.622H124ZM135.331 370.052C135.331 370.604 135.779 371.052 136.331 371.052H152.74C155.944 371.052 158.483 370.2 160.357 368.497C162.291 366.736 163.258 364.416 163.258 361.539C163.258 358.661 162.291 356.342 160.357 354.58C158.483 352.819 155.944 351.938 152.74 351.938H136.331C135.779 351.938 135.331 352.386 135.331 352.938V370.052ZM135.331 340.456C135.331 341.008 135.779 341.456 136.331 341.456H152.106C154.644 341.456 156.669 340.751 158.181 339.342C159.692 337.874 160.447 335.995 160.447 333.705C160.447 331.415 159.692 329.594 158.181 328.244C156.669 326.893 154.644 326.218 152.106 326.218H136.331C135.779 326.218 135.331 326.665 135.331 327.218V340.456Z" fill="url(#paint4_linear_17_939)"/>
<path d="M204.203 382.679C199.367 382.679 194.955 381.592 190.965 379.42C187.036 377.247 183.893 374.282 181.535 370.523C179.238 366.765 178.09 362.478 178.09 357.663C178.09 352.848 179.238 348.561 181.535 344.803C183.893 341.045 187.036 338.079 190.965 335.907C194.894 333.734 199.307 332.648 204.203 332.648C209.039 332.648 213.421 333.734 217.35 335.907C221.28 338.079 224.393 341.045 226.69 344.803C229.047 348.503 230.226 352.789 230.226 357.663C230.226 362.478 229.047 366.765 226.69 370.523C224.332 374.282 221.189 377.247 217.26 379.42C213.331 381.592 208.978 382.679 204.203 382.679ZM204.203 372.109C206.863 372.109 209.19 371.492 211.185 370.259C213.24 369.026 214.842 367.323 215.99 365.15C217.199 362.919 217.804 360.423 217.804 357.663C217.804 354.845 217.199 352.378 215.99 350.264C214.842 348.092 213.24 346.389 211.185 345.155C209.19 343.864 206.863 343.218 204.203 343.218C201.483 343.218 199.095 343.864 197.04 345.155C194.985 346.389 193.353 348.092 192.144 350.264C190.995 352.378 190.421 354.845 190.421 357.663C190.421 360.423 190.995 362.919 192.144 365.15C193.353 367.323 194.985 369.026 197.04 370.259C199.095 371.492 201.483 372.109 204.203 372.109Z" fill="url(#paint5_linear_17_939)"/>
<path d="M248.641 382.679C245.195 382.679 242.203 382.121 239.664 381.005C237.125 379.889 235.161 378.304 233.771 376.249C232.38 374.135 231.685 371.698 231.685 368.938C231.685 366.295 232.29 363.946 233.499 361.891C234.707 359.777 236.581 358.016 239.12 356.606C241.659 355.197 244.863 354.199 248.731 353.611L264.871 351.057V359.865L250.998 362.155C248.641 362.566 246.888 363.301 245.739 364.358C244.591 365.415 244.016 366.794 244.016 368.497C244.016 370.142 244.651 371.463 245.921 372.461C247.25 373.401 248.882 373.87 250.817 373.87C253.295 373.87 255.471 373.371 257.345 372.373C259.28 371.316 260.76 369.877 261.788 368.057C262.876 366.237 263.42 364.24 263.42 362.067V349.736C263.42 347.68 262.574 345.978 260.881 344.627C259.249 343.218 257.073 342.513 254.353 342.513C251.814 342.513 249.547 343.188 247.553 344.539C245.909 345.637 244.636 347.053 243.734 348.787C243.471 349.293 242.86 349.532 242.344 349.289L234.428 345.551C233.955 345.328 233.731 344.776 233.944 344.299C234.911 342.136 236.304 340.248 238.123 338.637C240.238 336.758 242.717 335.29 245.558 334.233C248.399 333.176 251.482 332.648 254.806 332.648C258.856 332.648 262.423 333.382 265.506 334.85C268.588 336.259 270.976 338.256 272.669 340.839C274.422 343.364 275.298 346.33 275.298 349.736V380.622C275.298 381.174 274.85 381.622 274.298 381.622H265.055C264.503 381.622 264.055 381.174 264.055 380.622V373.43L266.594 373.254C265.324 375.309 263.813 377.041 262.06 378.451C260.307 379.801 258.312 380.858 256.076 381.622C253.839 382.326 251.361 382.679 248.641 382.679Z" fill="url(#paint6_linear_17_939)"/>
<path d="M305.157 382.15C299.596 382.15 295.274 380.682 292.191 377.746C289.169 374.751 287.658 370.553 287.658 365.15V345.01C287.658 344.458 287.21 344.01 286.658 344.01H277.555C277.459 344.01 277.377 343.942 277.357 343.848C276.519 339.777 273.938 336.67 270.855 334.063C270.711 333.941 270.796 333.705 270.984 333.705H280.041C282.459 333.705 284.333 333.088 285.663 331.855C286.993 330.622 287.658 328.831 287.658 326.482V323.782C287.658 323.23 288.106 322.782 288.658 322.782H298.536C299.088 322.782 299.536 323.23 299.536 323.782V333.705H309.87C310.422 333.705 310.87 334.152 310.87 334.705V343.01C310.87 343.563 310.422 344.01 309.87 344.01H300.536C299.984 344.01 299.536 344.458 299.536 345.01V364.534C299.536 366.119 299.808 367.47 300.352 368.585C300.956 369.701 301.863 370.553 303.072 371.14C304.341 371.727 305.942 372.285 307.877 372.285C308.3 372.285 310.507 372.344 311.051 372.285C310.507 372.344 311.656 372.226 311.051 372.285V380.751C311.051 381.25 310.683 381.673 310.188 381.736C309.564 381.816 308.884 381.895 308.15 381.974C307.062 382.092 306.064 382.15 305.157 382.15Z" fill="url(#paint7_linear_17_939)"/>
<path d="M314.144 381.622C313.592 381.622 313.144 381.174 313.144 380.622V372.285L341.797 340.047L343.61 344.01H314.144C313.592 344.01 313.144 343.563 313.144 343.01V334.71C313.144 334.156 313.595 333.707 314.15 333.71L350.015 333.906C350.431 333.909 350.803 334.168 350.947 334.559L353.921 342.572C354.049 342.916 353.978 343.301 353.737 343.577L326.02 375.368L324.206 371.404H353.309C353.862 371.404 354.309 371.852 354.309 372.404V380.622C354.309 381.174 353.862 381.622 353.309 381.622H314.144Z" fill="url(#paint8_linear_17_939)"/>
<path d="M362.435 401C361.105 401 359.805 400.883 358.536 400.649C357.311 400.479 356.199 400.146 355.199 399.65C355.132 399.617 355.09 399.548 355.09 399.473V390.273C355.09 390.145 355.209 390.05 355.334 390.077C356.068 390.235 356.923 390.392 357.901 390.55C359.05 390.726 360.107 390.814 361.075 390.814C363.795 390.814 365.759 390.199 366.968 388.97C368.238 387.799 369.356 386.218 370.323 384.228L373.587 376.851L373.406 386.511L353.173 334.182C353.123 334.051 353.219 333.91 353.36 333.91H365.659C365.742 333.91 365.816 333.961 365.846 334.038L380.848 372.724H375.219L390.131 334.038C390.161 333.961 390.235 333.91 390.317 333.91H403.697C403.841 333.91 403.937 334.057 403.881 334.189L381.566 386.511C380.297 389.555 378.756 392.16 376.942 394.326C375.129 396.492 373.013 398.131 370.595 399.244C368.238 400.415 365.517 401 362.435 401Z" fill="url(#paint9_linear_17_939)"/>
<defs>
<linearGradient id="paint0_linear_17_939" x1="123" y1="256.5" x2="403.784" y2="251.766" gradientUnits="userSpaceOnUse">
<stop stop-color="#0E2F4F"/>
<stop offset="1" stop-color="#17B5B0"/>
</linearGradient>
<linearGradient id="paint1_linear_17_939" x1="123" y1="256.5" x2="403.784" y2="251.766" gradientUnits="userSpaceOnUse">
<stop stop-color="#0E2F4F"/>
<stop offset="1" stop-color="#17B5B0"/>
</linearGradient>
<linearGradient id="paint2_linear_17_939" x1="123" y1="256.5" x2="403.784" y2="251.766" gradientUnits="userSpaceOnUse">
<stop stop-color="#0E2F4F"/>
<stop offset="1" stop-color="#17B5B0"/>
</linearGradient>
<linearGradient id="paint3_linear_17_939" x1="123" y1="256.5" x2="403.784" y2="251.766" gradientUnits="userSpaceOnUse">
<stop stop-color="#0E2F4F"/>
<stop offset="1" stop-color="#17B5B0"/>
</linearGradient>
<linearGradient id="paint4_linear_17_939" x1="123" y1="256.5" x2="403.784" y2="251.766" gradientUnits="userSpaceOnUse">
<stop stop-color="#0E2F4F"/>
<stop offset="1" stop-color="#17B5B0"/>
</linearGradient>
<linearGradient id="paint5_linear_17_939" x1="123" y1="256.5" x2="403.784" y2="251.766" gradientUnits="userSpaceOnUse">
<stop stop-color="#0E2F4F"/>
<stop offset="1" stop-color="#17B5B0"/>
</linearGradient>
<linearGradient id="paint6_linear_17_939" x1="123" y1="256.5" x2="403.784" y2="251.766" gradientUnits="userSpaceOnUse">
<stop stop-color="#0E2F4F"/>
<stop offset="1" stop-color="#17B5B0"/>
</linearGradient>
<linearGradient id="paint7_linear_17_939" x1="123" y1="256.5" x2="403.784" y2="251.766" gradientUnits="userSpaceOnUse">
<stop stop-color="#0E2F4F"/>
<stop offset="1" stop-color="#17B5B0"/>
</linearGradient>
<linearGradient id="paint8_linear_17_939" x1="123" y1="256.5" x2="403.784" y2="251.766" gradientUnits="userSpaceOnUse">
<stop stop-color="#0E2F4F"/>
<stop offset="1" stop-color="#17B5B0"/>
</linearGradient>
<linearGradient id="paint9_linear_17_939" x1="123" y1="256.5" x2="403.784" y2="251.766" gradientUnits="userSpaceOnUse">
<stop stop-color="#0E2F4F"/>
<stop offset="1" stop-color="#17B5B0"/>
</linearGradient>
</defs>
</svg>
